<?xml version="1.0" standalone="no"?><!DOCTYPE svg PUBLIC "-//W3C//DTD SVG 1.1//EN" "http://www.w3.org/Graphics/SVG/1.1/DTD/svg11.dtd"><svg t="1566181271846" class="icon" viewBox="0 0 1024 1024" version="1.1" xmlns="http://www.w3.org/2000/svg" p-id="963" width="24" height="24" xmlns:xlink="http://www.w3.org/1999/xlink"><defs><style type="text/css"></style></defs><path d="M515.2 140.8h-6.4C307.2 140.8 140.8 307.2 140.8 508.8v6.4c0 201.6 166.4 368 368 368h6.4c201.6 0 368-166.4 368-368v-6.4c0-201.6-166.4-368-368-368z m-6.4 678.4c-166.4 0-304-137.6-304-304v-6.4c0-73.6 25.6-137.6 67.2-192l435.2 435.2c-51.2 41.6-118.4 67.2-192 67.2h-6.4z m310.4-304c0 73.6-25.6 137.6-67.2 192L316.8 272c51.2-41.6 118.4-67.2 192-67.2h6.4c166.4 0 304 137.6 304 304v6.4z" fill="#d81e06" p-id="964"></path></svg>